<mxfile host="app.diagrams.net" modified="2022-06-14T10:15:36.226Z" agent="5.0 (X11; Linux x86_64) AppleWebKit/537.36 (KHTML, like Gecko) Chrome/102.0.0.0 Safari/537.36" etag="ilOatFiE6kBmSDX_Dha3" version="20.0.1" type="github">
  <diagram id="R2lEEEUBdFMjLlhIrx00" name="Page-1">
    <mxGraphModel dx="1028" dy="625" grid="1" gridSize="10" guides="1" tooltips="1" connect="1" arrows="1" fold="1" page="1" pageScale="1" pageWidth="850" pageHeight="1100" math="0" shadow="0" extFonts="Permanent Marker^https://fonts.googleapis.com/css?family=Permanent+Marker">
      <root>
        <mxCell id="0" />
        <mxCell id="1" parent="0" />
        <mxCell id="YDJd1Xz_HqybMddByfN5-52" value="mahasiswa" style="whiteSpace=wrap;html=1;align=center;" vertex="1" parent="1">
          <mxGeometry x="90" y="490" width="150" height="90" as="geometry" />
        </mxCell>
        <mxCell id="YDJd1Xz_HqybMddByfN5-53" value="" style="endArrow=none;html=1;rounded=0;" edge="1" parent="1" target="YDJd1Xz_HqybMddByfN5-54">
          <mxGeometry relative="1" as="geometry">
            <mxPoint x="160" y="580" as="sourcePoint" />
            <mxPoint x="90" y="640" as="targetPoint" />
          </mxGeometry>
        </mxCell>
        <mxCell id="YDJd1Xz_HqybMddByfN5-54" value="nim" style="ellipse;whiteSpace=wrap;html=1;align=center;fontStyle=4;" vertex="1" parent="1">
          <mxGeometry x="30" y="620" width="100" height="40" as="geometry" />
        </mxCell>
        <mxCell id="YDJd1Xz_HqybMddByfN5-57" value="" style="endArrow=none;html=1;rounded=0;" edge="1" parent="1" target="YDJd1Xz_HqybMddByfN5-58">
          <mxGeometry relative="1" as="geometry">
            <mxPoint x="160" y="580" as="sourcePoint" />
            <mxPoint x="150" y="680" as="targetPoint" />
          </mxGeometry>
        </mxCell>
        <mxCell id="YDJd1Xz_HqybMddByfN5-58" value="nama" style="ellipse;whiteSpace=wrap;html=1;align=center;" vertex="1" parent="1">
          <mxGeometry x="170" y="620" width="100" height="40" as="geometry" />
        </mxCell>
        <mxCell id="YDJd1Xz_HqybMddByfN5-59" value="" style="endArrow=none;html=1;rounded=0;" edge="1" parent="1" target="YDJd1Xz_HqybMddByfN5-60">
          <mxGeometry relative="1" as="geometry">
            <mxPoint x="160" y="490" as="sourcePoint" />
            <mxPoint x="100" y="430" as="targetPoint" />
          </mxGeometry>
        </mxCell>
        <mxCell id="YDJd1Xz_HqybMddByfN5-60" value="alamat" style="ellipse;whiteSpace=wrap;html=1;align=center;" vertex="1" parent="1">
          <mxGeometry x="50" y="410" width="100" height="40" as="geometry" />
        </mxCell>
        <mxCell id="YDJd1Xz_HqybMddByfN5-61" value="jurusan" style="ellipse;whiteSpace=wrap;html=1;align=center;" vertex="1" parent="1">
          <mxGeometry x="170" y="410" width="100" height="40" as="geometry" />
        </mxCell>
        <mxCell id="YDJd1Xz_HqybMddByfN5-62" value="" style="endArrow=none;html=1;rounded=0;exitX=0.5;exitY=0;exitDx=0;exitDy=0;" edge="1" parent="1" source="YDJd1Xz_HqybMddByfN5-52">
          <mxGeometry relative="1" as="geometry">
            <mxPoint x="261.43" y="491.43" as="sourcePoint" />
            <mxPoint x="219.99953381770518" y="449.9995338177052" as="targetPoint" />
          </mxGeometry>
        </mxCell>
        <mxCell id="YDJd1Xz_HqybMddByfN5-63" value="jurusan" style="whiteSpace=wrap;html=1;align=center;" vertex="1" parent="1">
          <mxGeometry x="530" y="490" width="180" height="90" as="geometry" />
        </mxCell>
        <mxCell id="YDJd1Xz_HqybMddByfN5-67" value="" style="endArrow=none;html=1;rounded=0;exitX=0.5;exitY=0;exitDx=0;exitDy=0;" edge="1" parent="1" source="YDJd1Xz_HqybMddByfN5-63" target="YDJd1Xz_HqybMddByfN5-69">
          <mxGeometry relative="1" as="geometry">
            <mxPoint x="510" y="490" as="sourcePoint" />
            <mxPoint x="520" y="490" as="targetPoint" />
          </mxGeometry>
        </mxCell>
        <mxCell id="YDJd1Xz_HqybMddByfN5-69" value="namajurusan" style="ellipse;whiteSpace=wrap;html=1;align=center;" vertex="1" parent="1">
          <mxGeometry x="630" y="420" width="100" height="40" as="geometry" />
        </mxCell>
        <mxCell id="YDJd1Xz_HqybMddByfN5-77" value="Relationship" style="shape=rhombus;perimeter=rhombusPerimeter;whiteSpace=wrap;html=1;align=center;" vertex="1" parent="1">
          <mxGeometry x="320" y="505" width="120" height="60" as="geometry" />
        </mxCell>
      </root>
    </mxGraphModel>
  </diagram>
</mxfile>
